<mxfile host="Electron" modified="2024-07-17T14:49:33.372Z" agent="Mozilla/5.0 (Windows NT 10.0; Win64; x64) AppleWebKit/537.36 (KHTML, like Gecko) draw.io/24.5.3 Chrome/124.0.6367.207 Electron/30.0.6 Safari/537.36" etag="85ZJLlfQh4TdAd_rpgjt" version="24.5.3" type="device">
  <diagram name="Page-1" id="2YBvvXClWsGukQMizWep">
    <mxGraphModel dx="1147" dy="675" grid="1" gridSize="10" guides="1" tooltips="1" connect="1" arrows="1" fold="1" page="1" pageScale="1" pageWidth="850" pageHeight="1100" math="0" shadow="0">
      <root>
        <mxCell id="0" />
        <mxCell id="1" parent="0" />
        <mxCell id="aM9ryv3xv72pqoxQDRHE-1" value="GerenciadorTarefasController" style="shape=umlLifeline;perimeter=lifelinePerimeter;whiteSpace=wrap;html=1;container=0;dropTarget=0;collapsible=0;recursiveResize=0;outlineConnect=0;portConstraint=eastwest;newEdgeStyle={&quot;edgeStyle&quot;:&quot;elbowEdgeStyle&quot;,&quot;elbow&quot;:&quot;vertical&quot;,&quot;curved&quot;:0,&quot;rounded&quot;:0};" parent="1" vertex="1">
          <mxGeometry x="320" y="160" width="170" height="300" as="geometry" />
        </mxCell>
        <mxCell id="aM9ryv3xv72pqoxQDRHE-2" value="" style="html=1;points=[];perimeter=orthogonalPerimeter;outlineConnect=0;targetShapes=umlLifeline;portConstraint=eastwest;newEdgeStyle={&quot;edgeStyle&quot;:&quot;elbowEdgeStyle&quot;,&quot;elbow&quot;:&quot;vertical&quot;,&quot;curved&quot;:0,&quot;rounded&quot;:0};" parent="aM9ryv3xv72pqoxQDRHE-1" vertex="1">
          <mxGeometry x="80" y="70" width="10" height="190" as="geometry" />
        </mxCell>
        <mxCell id="aM9ryv3xv72pqoxQDRHE-3" value="Request PUT/gerenciador-tarefas" style="html=1;verticalAlign=bottom;startArrow=oval;endArrow=block;startSize=8;edgeStyle=elbowEdgeStyle;elbow=vertical;curved=0;rounded=0;" parent="aM9ryv3xv72pqoxQDRHE-1" target="aM9ryv3xv72pqoxQDRHE-2" edge="1">
          <mxGeometry relative="1" as="geometry">
            <mxPoint x="-150" y="70" as="sourcePoint" />
          </mxGeometry>
        </mxCell>
        <mxCell id="aM9ryv3xv72pqoxQDRHE-5" value="GerenciadorTarefasService" style="shape=umlLifeline;perimeter=lifelinePerimeter;whiteSpace=wrap;html=1;container=0;dropTarget=0;collapsible=0;recursiveResize=0;outlineConnect=0;portConstraint=eastwest;newEdgeStyle={&quot;edgeStyle&quot;:&quot;elbowEdgeStyle&quot;,&quot;elbow&quot;:&quot;vertical&quot;,&quot;curved&quot;:0,&quot;rounded&quot;:0};" parent="1" vertex="1">
          <mxGeometry x="560" y="160" width="170" height="300" as="geometry" />
        </mxCell>
        <mxCell id="aM9ryv3xv72pqoxQDRHE-6" value="" style="html=1;points=[];perimeter=orthogonalPerimeter;outlineConnect=0;targetShapes=umlLifeline;portConstraint=eastwest;newEdgeStyle={&quot;edgeStyle&quot;:&quot;elbowEdgeStyle&quot;,&quot;elbow&quot;:&quot;vertical&quot;,&quot;curved&quot;:0,&quot;rounded&quot;:0};" parent="aM9ryv3xv72pqoxQDRHE-5" vertex="1">
          <mxGeometry x="80" y="80" width="10" height="170" as="geometry" />
        </mxCell>
        <mxCell id="IiTI9jfZ8LXsbtytBa5d-1" value="GerenciadorTarefasRepository" style="shape=umlLifeline;perimeter=lifelinePerimeter;whiteSpace=wrap;html=1;container=0;dropTarget=0;collapsible=0;recursiveResize=0;outlineConnect=0;portConstraint=eastwest;newEdgeStyle={&quot;edgeStyle&quot;:&quot;elbowEdgeStyle&quot;,&quot;elbow&quot;:&quot;vertical&quot;,&quot;curved&quot;:0,&quot;rounded&quot;:0};" vertex="1" parent="1">
          <mxGeometry x="810" y="160" width="170" height="300" as="geometry" />
        </mxCell>
        <mxCell id="IiTI9jfZ8LXsbtytBa5d-2" value="" style="html=1;points=[];perimeter=orthogonalPerimeter;outlineConnect=0;targetShapes=umlLifeline;portConstraint=eastwest;newEdgeStyle={&quot;edgeStyle&quot;:&quot;elbowEdgeStyle&quot;,&quot;elbow&quot;:&quot;vertical&quot;,&quot;curved&quot;:0,&quot;rounded&quot;:0};" vertex="1" parent="IiTI9jfZ8LXsbtytBa5d-1">
          <mxGeometry x="80" y="80" width="10" height="170" as="geometry" />
        </mxCell>
        <mxCell id="IiTI9jfZ8LXsbtytBa5d-8" style="edgeStyle=orthogonalEdgeStyle;rounded=0;orthogonalLoop=1;jettySize=auto;html=1;" edge="1" parent="1" source="IiTI9jfZ8LXsbtytBa5d-3" target="IiTI9jfZ8LXsbtytBa5d-1">
          <mxGeometry relative="1" as="geometry">
            <Array as="points">
              <mxPoint x="1000" y="350" />
              <mxPoint x="1000" y="350" />
            </Array>
          </mxGeometry>
        </mxCell>
        <mxCell id="IiTI9jfZ8LXsbtytBa5d-19" value="Sucesso ou Erro" style="edgeLabel;html=1;align=center;verticalAlign=middle;resizable=0;points=[];" vertex="1" connectable="0" parent="IiTI9jfZ8LXsbtytBa5d-8">
          <mxGeometry x="-0.1369" relative="1" as="geometry">
            <mxPoint y="-10" as="offset" />
          </mxGeometry>
        </mxCell>
        <mxCell id="IiTI9jfZ8LXsbtytBa5d-3" value="Postgres" style="shape=datastore;whiteSpace=wrap;html=1;" vertex="1" parent="1">
          <mxGeometry x="1100" y="260" width="90" height="100" as="geometry" />
        </mxCell>
        <mxCell id="IiTI9jfZ8LXsbtytBa5d-4" style="edgeStyle=elbowEdgeStyle;rounded=0;orthogonalLoop=1;jettySize=auto;html=1;elbow=vertical;curved=0;" edge="1" parent="1" source="aM9ryv3xv72pqoxQDRHE-2" target="aM9ryv3xv72pqoxQDRHE-5">
          <mxGeometry relative="1" as="geometry">
            <Array as="points">
              <mxPoint x="530" y="280" />
            </Array>
          </mxGeometry>
        </mxCell>
        <mxCell id="IiTI9jfZ8LXsbtytBa5d-9" value="atualizarTarefa" style="edgeLabel;html=1;align=center;verticalAlign=middle;resizable=0;points=[];" vertex="1" connectable="0" parent="IiTI9jfZ8LXsbtytBa5d-4">
          <mxGeometry x="-0.1557" y="1" relative="1" as="geometry">
            <mxPoint as="offset" />
          </mxGeometry>
        </mxCell>
        <mxCell id="IiTI9jfZ8LXsbtytBa5d-5" style="edgeStyle=elbowEdgeStyle;rounded=0;orthogonalLoop=1;jettySize=auto;html=1;elbow=vertical;curved=0;" edge="1" parent="1" source="aM9ryv3xv72pqoxQDRHE-6" target="IiTI9jfZ8LXsbtytBa5d-1">
          <mxGeometry relative="1" as="geometry">
            <Array as="points">
              <mxPoint x="760" y="280" />
            </Array>
          </mxGeometry>
        </mxCell>
        <mxCell id="IiTI9jfZ8LXsbtytBa5d-10" value="salvar - validações na hora de atualizar" style="edgeLabel;html=1;align=center;verticalAlign=middle;resizable=0;points=[];" vertex="1" connectable="0" parent="IiTI9jfZ8LXsbtytBa5d-5">
          <mxGeometry x="-0.164" y="1" relative="1" as="geometry">
            <mxPoint y="-9" as="offset" />
          </mxGeometry>
        </mxCell>
        <mxCell id="IiTI9jfZ8LXsbtytBa5d-6" style="edgeStyle=elbowEdgeStyle;rounded=0;orthogonalLoop=1;jettySize=auto;html=1;elbow=vertical;curved=0;" edge="1" parent="1" source="IiTI9jfZ8LXsbtytBa5d-2" target="IiTI9jfZ8LXsbtytBa5d-3">
          <mxGeometry relative="1" as="geometry">
            <Array as="points">
              <mxPoint x="980" y="280" />
            </Array>
          </mxGeometry>
        </mxCell>
        <mxCell id="IiTI9jfZ8LXsbtytBa5d-18" value="Text" style="edgeLabel;html=1;align=center;verticalAlign=middle;resizable=0;points=[];" vertex="1" connectable="0" parent="IiTI9jfZ8LXsbtytBa5d-6">
          <mxGeometry x="0.178" relative="1" as="geometry">
            <mxPoint as="offset" />
          </mxGeometry>
        </mxCell>
        <mxCell id="IiTI9jfZ8LXsbtytBa5d-11" style="edgeStyle=elbowEdgeStyle;rounded=0;orthogonalLoop=1;jettySize=auto;html=1;elbow=vertical;curved=0;" edge="1" parent="1" source="IiTI9jfZ8LXsbtytBa5d-2" target="aM9ryv3xv72pqoxQDRHE-5">
          <mxGeometry relative="1" as="geometry">
            <Array as="points">
              <mxPoint x="760" y="360" />
            </Array>
          </mxGeometry>
        </mxCell>
        <mxCell id="IiTI9jfZ8LXsbtytBa5d-13" value="retorna tarefa atualizada" style="edgeLabel;html=1;align=center;verticalAlign=middle;resizable=0;points=[];" vertex="1" connectable="0" parent="IiTI9jfZ8LXsbtytBa5d-11">
          <mxGeometry x="0.0909" y="1" relative="1" as="geometry">
            <mxPoint x="4" y="-16" as="offset" />
          </mxGeometry>
        </mxCell>
        <mxCell id="IiTI9jfZ8LXsbtytBa5d-12" style="edgeStyle=elbowEdgeStyle;rounded=0;orthogonalLoop=1;jettySize=auto;html=1;elbow=vertical;curved=0;" edge="1" parent="1" source="aM9ryv3xv72pqoxQDRHE-6" target="aM9ryv3xv72pqoxQDRHE-1">
          <mxGeometry relative="1" as="geometry">
            <Array as="points">
              <mxPoint x="520" y="360" />
            </Array>
          </mxGeometry>
        </mxCell>
        <mxCell id="IiTI9jfZ8LXsbtytBa5d-14" value="retorna tarefa atualizada" style="edgeLabel;html=1;align=center;verticalAlign=middle;resizable=0;points=[];" vertex="1" connectable="0" parent="IiTI9jfZ8LXsbtytBa5d-12">
          <mxGeometry x="0.2767" y="-2" relative="1" as="geometry">
            <mxPoint x="30" y="-13" as="offset" />
          </mxGeometry>
        </mxCell>
        <mxCell id="IiTI9jfZ8LXsbtytBa5d-15" value="" style="ellipse;html=1;shape=endState;fillColor=#000000;strokeColor=#ff0000;" vertex="1" parent="1">
          <mxGeometry x="160" y="340" width="20" height="20" as="geometry" />
        </mxCell>
        <mxCell id="IiTI9jfZ8LXsbtytBa5d-16" style="edgeStyle=elbowEdgeStyle;rounded=0;orthogonalLoop=1;jettySize=auto;html=1;elbow=vertical;curved=0;entryX=1;entryY=0.5;entryDx=0;entryDy=0;" edge="1" parent="1" source="aM9ryv3xv72pqoxQDRHE-2" target="IiTI9jfZ8LXsbtytBa5d-15">
          <mxGeometry relative="1" as="geometry" />
        </mxCell>
        <mxCell id="IiTI9jfZ8LXsbtytBa5d-17" value="retorna 200 OK" style="edgeLabel;html=1;align=center;verticalAlign=middle;resizable=0;points=[];" vertex="1" connectable="0" parent="IiTI9jfZ8LXsbtytBa5d-16">
          <mxGeometry x="0.5749" y="-1" relative="1" as="geometry">
            <mxPoint x="54" y="-9" as="offset" />
          </mxGeometry>
        </mxCell>
      </root>
    </mxGraphModel>
  </diagram>
</mxfile>
